{
	"asset":{
		"generator":"Khronos glTF Blender I/O v3.6.28",
		"version":"2.0"
	},
	"extensionsUsed":[
		"KHR_materials_specular",
		"KHR_materials_ior"
	],
	"scene":0,
	"scenes":[
		{
			"name":"Scene",
			"nodes":[
				0
			]
		}
	],
	"nodes":[
		{
			"mesh":0,
			"name":"malation",
			"rotation":[
				0.24635545909404755,
				0.6628038883209229,
				-0.6628038883209229,
				0.24635547399520874
			]
		}
	],
	"materials":[
		{
			"doubleSided":true,
			"extensions":{
				"KHR_materials_specular":{
					"specularColorFactor":[
						0.020080160244135427,
						0.020080160244135427,
						0.020080160244135427
					]
				},
				"KHR_materials_ior":{
					"ior":0.0010000000474974513
				}
			},
			"name":"kff8000",
			"pbrMetallicRoughness":{
				"baseColorFactor":[
					1,
					0.5040000081062317,
					0,
					1
				],
				"metallicFactor":0,
				"roughnessFactor":0.5962674021720886
			}
		},
		{
			"doubleSided":true,
			"extensions":{
				"KHR_materials_specular":{
					"specularColorFactor":[
						0.020080160244135427,
						0.020080160244135427,
						0.020080160244135427
					]
				},
				"KHR_materials_ior":{
					"ior":0.0010000000474974513
				}
			},
			"name":"kffff30",
			"pbrMetallicRoughness":{
				"baseColorFactor":[
					1,
					1,
					0.19099999964237213,
					1
				],
				"metallicFactor":0,
				"roughnessFactor":0.5962674021720886
			}
		},
		{
			"doubleSided":true,
			"extensions":{
				"KHR_materials_specular":{
					"specularColorFactor":[
						0.020080160244135427,
						0.020080160244135427,
						0.020080160244135427
					]
				},
				"KHR_materials_ior":{
					"ior":0.0010000000474974513
				}
			},
			"name":"kff0d0d",
			"pbrMetallicRoughness":{
				"baseColorFactor":[
					1,
					0.054999999701976776,
					0.054999999701976776,
					1
				],
				"metallicFactor":0,
				"roughnessFactor":0.5962674021720886
			}
		},
		{
			"doubleSided":true,
			"extensions":{
				"KHR_materials_specular":{
					"specularColorFactor":[
						0.020080160244135427,
						0.020080160244135427,
						0.020080160244135427
					]
				},
				"KHR_materials_ior":{
					"ior":0.0010000000474974513
				}
			},
			"name":"k909090",
			"pbrMetallicRoughness":{
				"baseColorFactor":[
					0.5659999847412109,
					0.5659999847412109,
					0.5659999847412109,
					1
				],
				"metallicFactor":0,
				"roughnessFactor":0.5962674021720886
			}
		},
		{
			"doubleSided":true,
			"extensions":{
				"KHR_materials_specular":{
					"specularColorFactor":[
						0.020080160244135427,
						0.020080160244135427,
						0.020080160244135427
					]
				},
				"KHR_materials_ior":{
					"ior":0.0010000000474974513
				}
			},
			"name":"kffffff",
			"pbrMetallicRoughness":{
				"metallicFactor":0,
				"roughnessFactor":0.5962674021720886
			}
		}
	],
	"meshes":[
		{
			"name":"malation",
			"primitives":[
				{
					"attributes":{
						"POSITION":0,
						"NORMAL":1
					},
					"indices":2,
					"material":0
				},
				{
					"attributes":{
						"POSITION":3,
						"NORMAL":4
					},
					"indices":5,
					"material":1
				},
				{
					"attributes":{
						"POSITION":6,
						"NORMAL":7
					},
					"indices":8,
					"material":2
				},
				{
					"attributes":{
						"POSITION":9,
						"NORMAL":10
					},
					"indices":11,
					"material":3
				},
				{
					"attributes":{
						"POSITION":12,
						"NORMAL":13
					},
					"indices":14,
					"material":4
				}
			]
		}
	],
	"accessors":[
		{
			"bufferView":0,
			"componentType":5126,
			"count":4212,
			"max":[
				-1.9117720127105713,
				-0.21640099585056305,
				-1.4046789407730103
			],
			"min":[
				-3.567078113555908,
				-1.9820929765701294,
				-2.843864917755127
			],
			"type":"VEC3"
		},
		{
			"bufferView":1,
			"componentType":5126,
			"count":4212,
			"type":"VEC3"
		},
		{
			"bufferView":2,
			"componentType":5123,
			"count":24120,
			"type":"SCALAR"
		},
		{
			"bufferView":3,
			"componentType":5126,
			"count":4140,
			"max":[
				-0.4083000123500824,
				0.1193000003695488,
				-0.46866101026535034
			],
			"min":[
				-2.8302841186523438,
				-3.140500068664551,
				-3.5081610679626465
			],
			"type":"VEC3"
		},
		{
			"bufferView":4,
			"componentType":5126,
			"count":4140,
			"type":"VEC3"
		},
		{
			"bufferView":5,
			"componentType":5123,
			"count":23904,
			"type":"SCALAR"
		},
		{
			"bufferView":6,
			"componentType":5126,
			"count":12420,
			"max":[
				3.921099901199341,
				2.5494000911712646,
				-0.8724610209465027
			],
			"min":[
				-4.8543620109558105,
				-1.5902999639511108,
				-4.387461185455322
			],
			"type":"VEC3"
		},
		{
			"bufferView":7,
			"componentType":5126,
			"count":12420,
			"type":"VEC3"
		},
		{
			"bufferView":8,
			"componentType":5123,
			"count":71712,
			"type":"SCALAR"
		},
		{
			"bufferView":9,
			"componentType":5126,
			"count":34620,
			"max":[
				5.881792068481445,
				2.810213088989258,
				-0.46973100304603577
			],
			"min":[
				-5.871841907501221,
				-2.0475480556488037,
				-6.006257057189941
			],
			"type":"VEC3"
		},
		{
			"bufferView":10,
			"componentType":5126,
			"count":34620,
			"type":"VEC3"
		},
		{
			"bufferView":11,
			"componentType":5123,
			"count":199560,
			"type":"SCALAR"
		},
		{
			"bufferView":12,
			"componentType":5126,
			"count":25764,
			"max":[
				6.443299770355225,
				3.4149999618530273,
				-0.02276100032031536
			],
			"min":[
				-6.444699764251709,
				-2.6839001178741455,
				-6.613162040710449
			],
			"type":"VEC3"
		},
		{
			"bufferView":13,
			"componentType":5126,
			"count":25764,
			"type":"VEC3"
		},
		{
			"bufferView":14,
			"componentType":5123,
			"count":150024,
			"type":"SCALAR"
		}
	],
	"bufferViews":[
		{
			"buffer":0,
			"byteLength":50544,
			"byteOffset":0,
			"target":34962
		},
		{
			"buffer":0,
			"byteLength":50544,
			"byteOffset":50544,
			"target":34962
		},
		{
			"buffer":0,
			"byteLength":48240,
			"byteOffset":101088,
			"target":34963
		},
		{
			"buffer":0,
			"byteLength":49680,
			"byteOffset":149328,
			"target":34962
		},
		{
			"buffer":0,
			"byteLength":49680,
			"byteOffset":199008,
			"target":34962
		},
		{
			"buffer":0,
			"byteLength":47808,
			"byteOffset":248688,
			"target":34963
		},
		{
			"buffer":0,
			"byteLength":149040,
			"byteOffset":296496,
			"target":34962
		},
		{
			"buffer":0,
			"byteLength":149040,
			"byteOffset":445536,
			"target":34962
		},
		{
			"buffer":0,
			"byteLength":143424,
			"byteOffset":594576,
			"target":34963
		},
		{
			"buffer":0,
			"byteLength":415440,
			"byteOffset":738000,
			"target":34962
		},
		{
			"buffer":0,
			"byteLength":415440,
			"byteOffset":1153440,
			"target":34962
		},
		{
			"buffer":0,
			"byteLength":399120,
			"byteOffset":1568880,
			"target":34963
		},
		{
			"buffer":0,
			"byteLength":309168,
			"byteOffset":1968000,
			"target":34962
		},
		{
			"buffer":0,
			"byteLength":309168,
			"byteOffset":2277168,
			"target":34962
		},
		{
			"buffer":0,
			"byteLength":300048,
			"byteOffset":2586336,
			"target":34963
		}
	],
	"buffers":[
		{
			"byteLength":2886384,
			"uri":"data:application/octet-stream;base64,"
		}
	]
}
